<svg width="175" height="80" viewBox="0 0 175 80" fill="none" xmlns="http://www.w3.org/2000/svg">
<g clip-path="url(#clip0_321_1357)">
<path d="M150.912 40.883C149.857 40.883 148.662 41.3212 147.698 42.2161V41.1318H145.175V50.0283H147.7V43.9309C148.443 43.3372 149.327 43.0092 150.019 43.0092C150.847 43.0092 151.48 43.48 151.48 44.5402V50.0283H154.004V44.2321C154.004 41.9376 152.572 40.8872 150.917 40.8872L150.912 40.883ZM139.766 43.0233C141.16 43.0233 142.016 44.0695 142.016 45.5878C142.016 47.1061 141.156 48.1509 139.766 48.1509C138.377 48.1509 137.517 47.0906 137.517 45.5878C137.517 44.085 138.358 43.0233 139.766 43.0233ZM139.766 40.89C136.87 40.8717 134.958 42.971 134.958 45.5864C134.958 48.2018 136.87 50.2842 139.766 50.2842C142.663 50.2842 144.574 48.1848 144.574 45.5864C144.574 42.988 142.686 40.883 139.766 40.883V40.89ZM134.53 48.0067C134.134 48.1396 133.721 48.2148 133.304 48.23C132.63 48.23 132.143 47.9402 132.143 47.0821V43.0573H134.569V41.1304H132.143V38.7271H129.619V41.1304H129.563L127.887 41.4965V43.0516H129.619V47.4058C129.619 49.4953 130.993 50.2799 132.554 50.2757C133.418 50.2604 134.268 50.0526 135.039 49.6678L134.53 48.0067ZM123.454 48.1961C122.698 48.1961 121.831 47.7847 121.09 47.0651V44.0553C121.822 43.3358 122.731 42.9866 123.457 42.9866C124.657 42.9866 125.355 44.0582 125.349 45.5807C125.349 47.263 124.561 48.1862 123.454 48.1961ZM123.964 40.883C122.981 40.883 121.951 41.2972 121.09 42.0988V41.1318H118.567V53.5866H121.09V49.1108C121.963 49.894 122.993 50.2813 123.938 50.2785C126.166 50.2785 127.9 48.3869 127.904 45.5807C127.904 42.964 126.314 40.8745 123.964 40.883ZM114.586 40.883C113.414 40.883 112.13 41.4032 111.119 42.3462C110.6 41.3453 109.635 40.883 108.566 40.883C107.521 40.883 106.394 41.3354 105.486 42.209V41.1318H102.961V50.0283H105.486V43.8984C106.147 43.3329 106.933 43.0092 107.593 43.0078C108.388 43.0078 109.001 43.4743 108.998 44.5402V50.0283H111.523V44.2321C111.523 44.0907 111.523 43.9493 111.508 43.8192C112.182 43.3061 112.953 43.012 113.6 43.0106C114.417 43.0106 115.033 43.4715 115.033 44.5445V50.0325H117.557V44.2363C117.557 41.9235 116.199 40.8915 114.583 40.8915L114.586 40.883ZM96.9182 48.1735C95.7148 48.1735 95.0257 47.1528 95.0257 45.5793C95.0257 44.0059 95.742 42.988 96.9182 42.9866C97.6346 42.9866 98.5529 43.3414 99.2649 44.0398V47.1231C98.5486 47.8229 97.6317 48.1763 96.9182 48.1777V48.1735ZM101.789 41.136H99.2649V42.0903C98.3638 41.2548 97.3308 40.8872 96.3595 40.8872C94.0672 40.8872 92.4655 42.9682 92.4655 45.5836C92.4655 48.1989 94.0701 50.2813 96.3595 50.2813C97.3308 50.2813 98.3652 49.9138 99.2649 49.0783V50.0325H101.789V41.136ZM88.4727 40.8886C87.3824 40.8886 86.2005 41.3438 85.2563 42.2203V37.5735H82.732V50.0283H85.2563V43.9239C85.9727 43.3372 86.8136 43.0106 87.5214 43.0078C88.381 43.0078 89.0343 43.4771 89.0343 44.5402V50.0283H91.5586V44.2321C91.5586 41.9362 90.1331 40.8886 88.4727 40.8886ZM81.3093 48.0109C80.9137 48.1438 80.5006 48.219 80.083 48.2343C79.4082 48.2343 78.9225 47.9445 78.9225 47.0863V43.0573H81.348V41.1304H78.924V38.7271H76.3996V41.1304H76.3437L74.6675 41.4965V43.0516H76.3996V47.4058C76.3996 49.4953 77.7721 50.2799 79.3351 50.2757C80.199 50.2601 81.0482 50.0523 81.8194 49.6678L81.3093 48.0109ZM73.8079 41.136H71.285V47.2475C70.5844 47.8384 69.7434 48.1593 69.0156 48.1565C68.189 48.1565 67.6661 47.6419 67.6661 46.6241V41.1318H65.1417V46.928C65.1417 49.2408 66.5228 50.2728 68.1732 50.2728C69.2091 50.2728 70.3623 49.8205 71.285 48.9482V50.024H73.8093L73.8079 41.136ZM59.6431 43.0233C61.0371 43.0233 61.8939 44.0695 61.8939 45.5878C61.8939 47.1061 61.0343 48.1509 59.6431 48.1509C58.252 48.1509 57.3939 47.0906 57.3939 45.5878C57.3939 44.085 58.2363 43.0233 59.6431 43.0233ZM59.6431 40.89C56.7477 40.8717 54.8351 42.971 54.8351 45.5864C54.8351 48.2018 56.7477 50.2842 59.6431 50.2842C62.5386 50.2842 64.4526 48.1848 64.4526 45.5864C64.4526 42.988 62.5601 40.89 59.6431 40.89ZM49.4025 37.3232C46.8752 37.3232 44.54 38.3892 44.5314 41.2039C44.5314 43.4163 45.9641 44.0426 48.9727 44.8711C50.7334 45.3517 51.5085 45.5383 51.4899 46.4714C51.4813 47.362 50.6861 47.9784 49.295 47.9741C47.9956 47.9741 46.5128 47.4256 45.7234 46.4728L44.2119 48.1438C45.2664 49.4755 47.3638 50.2771 49.2936 50.2771C51.5386 50.2771 54.2678 49.1815 54.2492 46.3837C54.2305 43.6906 51.7334 43.1039 49.8308 42.5964C47.6131 42.0083 47.2606 41.7665 47.2921 41.0696C47.3495 40.0093 48.1732 39.6417 49.3767 39.6389C50.5164 39.6217 51.6281 39.9882 52.5285 40.678L54.0042 38.9094C52.9239 37.9467 51.328 37.3232 49.4096 37.3232" fill="white"/>
<path d="M115.986 28.1864C116.395 28.1945 116.799 28.2789 117.176 28.4352L117.481 27.5728C116.966 27.2913 116.39 27.1366 115.801 27.1218C114.709 27.1218 113.861 27.8046 113.861 29.3159V29.5605H113.808L112.764 29.7612V30.5515H113.861V35.1065H115.125V30.5515H116.721V29.5619H115.125V29.248C115.125 28.561 115.441 28.1864 115.986 28.1864ZM109.781 30.5218C110.765 30.5218 111.371 31.2598 111.371 32.3328C111.371 33.4058 110.765 34.1437 109.781 34.1437C108.796 34.1437 108.192 33.3945 108.192 32.3328C108.192 31.2711 108.786 30.5218 109.781 30.5218V30.5218ZM109.781 29.405C108.041 29.3937 106.894 30.7028 106.894 32.3328C106.894 33.9628 108.04 35.2606 109.781 35.2606C111.521 35.2606 112.669 33.9515 112.669 32.3328C112.669 30.7141 111.533 29.405 109.781 29.405V29.405ZM104.322 29.5605H103.001L101.387 33.5853L99.6833 29.5605H98.3108L100.785 35.0867L99.8881 37.3246H101.049L104.322 29.5605ZM97.9455 34.0405C97.688 34.1313 97.4178 34.1824 97.1446 34.1918C96.7148 34.1918 96.3652 34.0179 96.3652 33.4595V30.5515H97.9555V29.5619H96.3652V28.0195H95.1016V29.5605H95.05L94.0042 29.7612V30.5515H95.1016V33.5514C95.1016 34.7898 95.9139 35.2648 96.8136 35.2606C97.3095 35.2532 97.7957 35.1235 98.2277 34.8831L97.9455 34.0405ZM93.5687 29.5605H92.3051V35.1065H93.5687V29.5605ZM92.9369 27.2985C92.7903 27.3005 92.6477 27.3452 92.5269 27.427C92.4061 27.5089 92.3125 27.6242 92.258 27.7584C92.2035 27.8926 92.1905 28.0397 92.2206 28.1812C92.2507 28.3227 92.3226 28.4523 92.4272 28.5535C92.5318 28.6548 92.6645 28.7232 92.8084 28.7502C92.9524 28.7772 93.1012 28.7615 93.2361 28.7052C93.3711 28.6488 93.4861 28.5543 93.5667 28.4335C93.6473 28.3128 93.6898 28.1712 93.689 28.0266C93.6883 27.9297 93.6682 27.8339 93.6299 27.7446C93.5916 27.6554 93.5359 27.5744 93.4659 27.5064C93.3959 27.4384 93.3131 27.3847 93.2221 27.3483C93.131 27.3119 93.0336 27.2936 92.9354 27.2943L92.9369 27.2985ZM89.3638 29.405C88.2463 29.405 87.1317 29.8588 87.1331 31.1283C87.1331 32.0953 87.7836 32.4232 89.2062 32.7908C89.9526 32.9859 90.4569 33.0651 90.4541 33.5288C90.4512 33.9925 89.9383 34.2582 89.2377 34.2582C88.5644 34.2582 87.8552 34.0193 87.5114 33.5641L86.9827 34.3812C87.4512 34.9552 88.3781 35.2592 89.2821 35.2592C90.4096 35.2592 91.7177 34.7898 91.7177 33.5076C91.7177 32.2522 90.4784 31.9836 89.5601 31.7503C88.6174 31.5114 88.3767 31.387 88.3881 31.0534C88.3996 30.6137 88.8179 30.4087 89.4139 30.4087C90.0099 30.4087 90.6417 30.5939 90.9985 30.9445L91.5271 30.1302C90.9841 29.6071 90.1145 29.4036 89.371 29.4036L89.3638 29.405ZM86.7936 29.3979C85.9726 29.4261 85.1919 29.7558 84.6045 30.3225V29.5605H83.3409V35.1065H84.6045V31.3644C85.1442 30.8966 85.832 30.6287 86.55 30.6066C86.6092 30.603 86.6685 30.603 86.7277 30.6066L86.944 29.3965C86.8953 29.3965 86.8452 29.3965 86.7936 29.3965V29.3979ZM80.0701 30.4893C80.8953 30.4893 81.3036 30.9869 81.4225 31.7616H78.6102C78.7678 30.994 79.2879 30.4907 80.0701 30.4907V30.4893ZM80.0357 29.4036C78.3638 29.3951 77.2606 30.7013 77.2606 32.3314C77.2606 33.9614 78.3695 35.2592 80.0486 35.2592C80.8354 35.2472 81.5968 34.9827 82.2177 34.5056L81.9139 33.6928C81.3674 33.9902 80.757 34.155 80.1331 34.1734C79.295 34.1734 78.7205 33.6164 78.5916 32.7385C78.5916 32.706 78.5816 32.6735 78.5787 32.6395H82.6933C82.6933 32.5561 82.7019 32.4713 82.7019 32.3865C82.7019 30.6731 81.7836 29.4064 80.0357 29.4064V29.4036ZM77.4283 29.5591H76.0887L74.5128 33.7663L72.9283 29.5605H71.5887L73.8337 35.1065H75.1833L77.4283 29.5591ZM71.0658 29.5591H69.8022V35.1065H71.0658V29.5591ZM70.434 27.2971C70.2877 27.2994 70.1454 27.3442 70.0249 27.426C69.9043 27.5078 69.811 27.6229 69.7566 27.7569C69.7022 27.8909 69.6891 28.0378 69.719 28.1791C69.7489 28.3204 69.8205 28.4498 69.9247 28.5511C70.029 28.6524 70.1612 28.721 70.3048 28.7484C70.4485 28.7757 70.5971 28.7606 70.732 28.7048C70.867 28.6491 70.9822 28.5552 71.0633 28.4351C71.1443 28.3149 71.1876 28.1738 71.1876 28.0294C71.1857 27.8338 71.1053 27.6469 70.9641 27.5097C70.8228 27.3724 70.6322 27.296 70.434 27.2971ZM66.9956 29.4078C66.2448 29.4269 65.5287 29.7242 64.9899 30.2405V29.5605H63.7263V35.1065H64.9899V31.1806C65.5128 30.7452 66.1446 30.5133 66.6288 30.5133C67.2019 30.5133 67.6503 30.847 67.6503 31.5778V35.1065H68.9139V31.4902C68.9139 30.0652 68.0171 29.405 66.9913 29.405L66.9956 29.4078ZM62.8624 27.3424H61.4913V32.4006C61.4913 33.4242 60.732 34.0858 59.5701 34.0872C58.4082 34.0886 57.6489 33.4213 57.6489 32.4006V27.3424H56.2778V32.4006C56.2778 34.0589 57.6661 35.2592 59.573 35.2592C61.4798 35.2592 62.8681 34.0589 62.8681 32.4006L62.8624 27.3424Z" fill="white"/>
<path d="M24.2807 29.1123C24.2835 28.987 24.2621 28.8623 24.2177 28.7448C24.091 28.7354 23.9637 28.7517 23.8438 28.7928C23.88 28.9545 23.8726 29.1227 23.8223 29.2806C23.958 29.1867 24.1158 29.1288 24.2807 29.1123V29.1123Z" fill="white"/>
<path d="M23.8926 29.8333C23.9118 29.827 23.932 29.8244 23.9522 29.8259C23.9724 29.8273 23.992 29.8328 24.0101 29.8418C24.0283 29.8509 24.0445 29.8635 24.0578 29.8787C24.071 29.894 24.0811 29.9117 24.0874 29.9309C24.0993 29.9694 24.0957 30.0109 24.0774 30.0468C24.0684 30.0649 24.0558 30.081 24.0402 30.0942C24.0247 30.1073 24.0067 30.1172 23.9871 30.1232L23.7264 30.2066C23.7264 30.2221 23.7264 30.2391 23.7264 30.2546V30.2716C23.9485 30.3508 24.2508 30.4271 24.47 30.3564C24.6326 30.3158 24.7728 30.2144 24.8611 30.0737C24.9135 29.9547 24.9201 29.8208 24.8794 29.6974C24.8388 29.5739 24.7538 29.4694 24.6404 29.4036C24.4853 29.3407 24.3113 29.3407 24.1562 29.4036C23.9399 29.4729 23.7422 29.7061 23.6104 29.897L23.6247 29.9168L23.8926 29.8333Z" fill="white"/>
<path d="M22.9496 29.6582V29.3755C22.9533 29.3377 22.9711 29.3027 22.9996 29.2771C23.0281 29.2516 23.0652 29.2375 23.1036 29.2375C23.1421 29.2375 23.1792 29.2516 23.2076 29.2771C23.2361 29.3027 23.2539 29.3377 23.2576 29.3755V29.6582L23.3078 29.6738C23.451 29.4914 23.6101 29.237 23.6101 29.0136C23.6101 28.639 23.4252 28.4241 23.1029 28.4241C22.7805 28.4241 22.5972 28.639 22.5972 29.0136C22.5972 29.237 22.7576 29.4914 22.8995 29.6738L22.9496 29.6582Z" fill="white"/>
<path d="M22.3868 29.2793C22.3387 29.1229 22.3314 28.9571 22.3653 28.7972C22.246 28.7552 22.1194 28.7369 21.9928 28.7435C21.9445 28.859 21.9211 28.9833 21.9241 29.1082C22.091 29.1236 22.2508 29.1826 22.3868 29.2793V29.2793Z" fill="white"/>
<path d="M23.1033 30.6731C23.3375 30.6731 23.5273 30.4857 23.5273 30.2546C23.5273 30.0235 23.3375 29.8362 23.1033 29.8362C22.8691 29.8362 22.6792 30.0235 22.6792 30.2546C22.6792 30.4857 22.8691 30.6731 23.1033 30.6731Z" fill="white"/>
<path d="M28.6317 31.9525H29.007C29.7893 31.9525 30.6174 32.2946 31.2621 32.7357V28.1525C30.7535 27.6138 29.9211 27.4725 29.1833 27.3509C28.9031 27.311 28.6256 27.2544 28.3523 27.1812C27.9469 27.0663 27.5569 26.904 27.1904 26.6978V31.8338C27.5515 31.9652 28.073 31.9582 28.6317 31.9525Z" fill="white"/>
<path d="M33.8724 32.0402C34.5285 32.0614 35.1489 32.0798 35.5658 31.8564V26.6978C35.1996 26.9045 34.8095 27.0669 34.4039 27.1812C34.1306 27.2544 33.8532 27.311 33.5729 27.3509C32.8365 27.4739 31.997 27.6124 31.4941 28.1525V32.7329C32.1969 32.2685 33.0266 32.0268 33.8724 32.0402Z" fill="white"/>
<path d="M22.9156 30.8414L22.8711 30.8258L22.715 31.0379C22.69 31.0695 22.6538 31.0906 22.6136 31.0969C22.5734 31.1032 22.5324 31.0942 22.4986 31.0718C22.4672 31.0484 22.4459 31.0141 22.439 30.9758C22.4321 30.9375 22.4401 30.8981 22.4614 30.8654L22.6204 30.6505L22.6061 30.6335C22.1605 30.758 21.9958 30.929 21.9456 30.9983C21.7193 31.3051 21.7408 31.5793 22.0044 31.7688C22.268 31.9582 22.5402 31.8932 22.7651 31.5864C22.9012 31.3941 22.9156 31.0803 22.9156 30.8414Z" fill="white"/>
<path d="M23.1015 31.4592C23.0755 31.5302 23.0424 31.5984 23.0026 31.6628L22.9639 31.7208C22.9253 31.7712 22.8827 31.8185 22.8364 31.8621C22.9079 31.9626 22.9978 32.0489 23.1015 32.1166C23.2083 32.052 23.3005 31.9664 23.3722 31.865L23.3293 31.8211C23.2276 31.7183 23.1499 31.5948 23.1015 31.4592V31.4592Z" fill="white"/>
<path d="M21.7364 30.3565C21.9556 30.4258 22.2579 30.3565 22.4799 30.2717V30.2547C22.4799 30.2391 22.4799 30.2222 22.4799 30.2066L22.2178 30.1232C22.1793 30.11 22.1475 30.0826 22.1291 30.0467C22.1107 30.0109 22.107 29.9694 22.1189 29.931C22.1252 29.9118 22.1353 29.8941 22.1486 29.8788C22.1618 29.8635 22.1781 29.851 22.1963 29.8419C22.2143 29.8328 22.234 29.8274 22.2541 29.8259C22.2743 29.8245 22.2946 29.827 22.3137 29.8334L22.5802 29.9182L22.5945 29.8984C22.4627 29.7076 22.265 29.4743 22.0487 29.4051C21.9629 29.3757 21.873 29.36 21.7822 29.3584C21.6982 29.3618 21.6163 29.3857 21.5438 29.4278C21.4713 29.47 21.4105 29.5291 21.3667 29.6C21.3229 29.6709 21.2975 29.7513 21.2928 29.8342C21.2881 29.9171 21.3041 29.9999 21.3395 30.0752C21.4291 30.2169 21.5717 30.318 21.7364 30.3565V30.3565Z" fill="white"/>
<path d="M23.6017 30.6265L23.5874 30.6434L23.745 30.8654C23.7692 30.8979 23.7795 30.9385 23.7736 30.9785C23.7704 30.9985 23.7632 31.0177 23.7523 31.0349C23.7415 31.0522 23.7273 31.0671 23.7106 31.0789C23.6771 31.1012 23.6363 31.1101 23.5963 31.1038C23.5564 31.0975 23.5204 31.0765 23.4957 31.0449L23.3453 30.8258L23.3009 30.8413C23.2822 31.3008 23.3968 31.51 23.4441 31.5793C23.6676 31.8818 23.9456 31.9483 24.2049 31.7617C24.4642 31.5751 24.4914 31.298 24.265 30.9912C24.2049 30.9219 24.0458 30.7509 23.6017 30.6265Z" fill="white"/>
<path d="M24.5474 30.5828C24.4933 30.5994 24.4376 30.6103 24.3812 30.6153C24.3439 30.6153 24.3053 30.6238 24.2651 30.6252C24.3982 30.7243 24.5029 30.8559 24.5689 31.0069C24.6901 30.9705 24.8033 30.912 24.9027 30.8345C24.8742 30.7145 24.8205 30.6018 24.7451 30.5037C24.6815 30.5353 24.6154 30.5618 24.5474 30.5828V30.5828Z" fill="white"/>
<path d="M39.5775 31.4592C39.5511 31.5302 39.5175 31.5984 39.4773 31.6628C39.4658 31.6826 39.4529 31.7024 39.44 31.7208C39.4011 31.7709 39.3584 31.8181 39.3125 31.8621C39.3832 31.9632 39.4732 32.0497 39.5775 32.1166C39.6844 32.052 39.7766 31.9664 39.8483 31.865L39.8053 31.8211C39.7037 31.7183 39.6259 31.5948 39.5775 31.4592Z" fill="white"/>
<path d="M41.0215 30.5828C40.9679 30.5995 40.9127 30.6104 40.8567 30.6153C40.8195 30.6153 40.7794 30.6238 40.7393 30.6252C40.8726 30.7244 40.9777 30.8559 41.0444 31.0069C41.1656 30.9705 41.2788 30.912 41.3782 30.8345C41.3494 30.7147 41.2957 30.602 41.2206 30.5037C41.1565 30.5353 41.0899 30.5618 41.0215 30.5828V30.5828Z" fill="white"/>
<path d="M40.0762 30.6265L40.0633 30.6434L40.2209 30.8583C40.2447 30.8912 40.2544 30.9321 40.248 30.972C40.2415 31.0119 40.2195 31.0478 40.1865 31.0718C40.153 31.0941 40.1122 31.1031 40.0722 31.0968C40.0323 31.0905 39.9963 31.0694 39.9716 31.0379L39.814 30.8258L39.7696 30.8413C39.751 31.3008 39.867 31.51 39.9129 31.5793C40.1392 31.8861 40.41 31.9511 40.6736 31.7617C40.7325 31.7245 40.7821 31.6746 40.8188 31.6159C40.8555 31.5572 40.8784 31.491 40.8856 31.4224C40.8876 31.2675 40.8332 31.117 40.7323 30.9983C40.6808 30.9219 40.5217 30.7509 40.0762 30.6265Z" fill="white"/>
<path d="M38.4172 30.6251H38.3886C38.3022 30.6247 38.2164 30.6124 38.1336 30.5883C38.066 30.5664 38.0003 30.539 37.9373 30.5063C37.8631 30.6038 37.8082 30.7141 37.7754 30.8315C37.8733 30.9118 37.987 30.9715 38.1092 31.0068C38.1767 30.8554 38.2828 30.7239 38.4172 30.6251V30.6251Z" fill="white"/>
<path d="M39.3912 30.8413L39.3483 30.8258L39.1921 31.0379C39.1669 31.0692 39.1307 31.0901 39.0906 31.0964C39.0506 31.1027 39.0096 31.0939 38.9758 31.0718C38.9428 31.0478 38.9207 31.0119 38.9143 30.972C38.9078 30.9321 38.9176 30.8912 38.9414 30.8583L39.1004 30.6434L39.0861 30.6265C38.6405 30.7509 38.4758 30.9219 38.4256 30.9912C38.1993 31.298 38.2207 31.5722 38.4844 31.7617C38.5385 31.8053 38.6019 31.8363 38.6699 31.8525C38.7378 31.8687 38.8086 31.8695 38.8769 31.855C39.0304 31.8081 39.1613 31.7075 39.2451 31.5722C39.3769 31.3941 39.3912 31.0803 39.3912 30.8413Z" fill="white"/>
<path d="M42.7536 27.3313L42.3811 27.1616C42.1863 27.0725 37.5387 24.9944 31.4255 24.9944C25.3123 24.9944 20.5774 27.0768 20.3782 27.1644L20 27.3313V36.9289C20.0819 39.0695 20.4677 41.1881 21.1461 43.2228C22.8782 48.3433 26.3625 51.8832 31.2249 53.4566C31.2892 53.4775 31.3564 53.488 31.4241 53.4878C31.4917 53.4879 31.5589 53.4774 31.6232 53.4566C36.4943 51.8832 39.9556 48.339 41.6519 43.2072C42.3125 41.1804 42.6833 39.0725 42.7536 36.9445V36.9445V36.9148C42.7665 36.4469 42.7536 27.3313 42.7536 27.3313ZM26.1648 27.7214C26.1645 27.705 26.168 27.6888 26.1749 27.6738C26.1819 27.6589 26.1921 27.6457 26.2049 27.6352C26.2176 27.6244 26.2324 27.6165 26.2485 27.6118C26.2646 27.6072 26.2814 27.606 26.298 27.6083L26.5602 27.6479V27.139C26.5599 27.1208 26.564 27.1028 26.5722 27.0866C26.5804 27.0703 26.5925 27.0563 26.6074 27.0456C26.6223 27.0349 26.6396 27.0279 26.6578 27.0252C26.676 27.0225 26.6946 27.0242 26.712 27.0301L26.9585 27.1107V26.4901C26.9585 26.4689 26.9645 26.4482 26.9758 26.4302C26.987 26.4123 27.0031 26.3977 27.0223 26.3882C27.0414 26.3787 27.0629 26.3746 27.0842 26.3763C27.1056 26.3781 27.126 26.3857 27.1433 26.3982C27.5365 26.6499 27.9665 26.8406 28.4183 26.9637C28.6819 27.0329 28.9493 27.0872 29.2192 27.1263C29.9685 27.2493 30.8123 27.3892 31.3682 27.9406C31.9312 27.3892 32.7751 27.2493 33.5244 27.1263C33.7952 27.087 34.0636 27.0322 34.3281 26.9623C34.7801 26.8397 35.2102 26.649 35.6032 26.3968C35.6204 26.3843 35.6409 26.3767 35.6622 26.3749C35.6836 26.3731 35.705 26.3772 35.7241 26.3868C35.7433 26.3963 35.7594 26.4108 35.7706 26.4288C35.7819 26.4468 35.7879 26.4675 35.788 26.4887V27.1093L36.0373 27.0287C36.0547 27.0228 36.0733 27.0211 36.0915 27.0238C36.1097 27.0265 36.127 27.0335 36.1419 27.0442C36.1568 27.0548 36.1688 27.0689 36.1771 27.0852C36.1853 27.1014 36.1894 27.1194 36.1891 27.1376V27.6465L36.4527 27.6069C36.4692 27.6045 36.4861 27.6056 36.5021 27.6101C36.5181 27.6147 36.5329 27.6226 36.5456 27.6334C36.5582 27.6441 36.5684 27.6574 36.5754 27.6723C36.5823 27.6873 36.5859 27.7036 36.586 27.72V32.0248C36.5857 32.0404 36.5823 32.0559 36.5759 32.0702C36.5695 32.0845 36.5602 32.0974 36.5487 32.1082C36.5369 32.1187 36.5231 32.1268 36.5081 32.1319C36.4931 32.137 36.4772 32.139 36.4613 32.1379C36.1967 32.3464 35.864 32.4524 35.5258 32.4362C32.4484 32.4362 32.9155 32.6906 31.9943 33.013C31.9943 33.249 31.7507 33.3947 31.3682 33.3947C30.9857 33.3947 30.7522 33.2533 30.7464 33.0144C29.8252 32.6906 29.7436 32.4008 27.2135 32.4008C26.467 32.4008 26.2794 32.1379 26.2794 32.1379C26.2635 32.1392 26.2476 32.1372 26.2325 32.1321C26.2175 32.127 26.2037 32.1188 26.192 32.1082C26.1802 32.0976 26.1708 32.0848 26.1643 32.0704C26.1579 32.056 26.1546 32.0405 26.1547 32.0248L26.1648 27.7214ZM31.3052 35.9068C31.4464 36.0142 31.5932 36.1143 31.745 36.2065C32.0473 36.4016 31.9384 36.8667 31.6361 37.3262C31.5487 37.4676 31.265 37.8775 31.298 38.7526C31.3347 39.1168 31.4315 39.4725 31.5845 39.8058C31.2899 39.7885 30.9943 39.8047 30.7034 39.8539C30.6802 39.8585 30.6562 39.8567 30.634 39.8487C30.6117 39.8408 30.5922 39.8269 30.5774 39.8087C30.49 39.7069 30.4026 39.6023 30.3095 39.5061C29.8539 39.0212 28.8911 38.8615 28.4327 38.7611C28.2894 38.7343 27.4628 38.5279 27.3539 38.4897C27.303 38.4646 27.2503 38.4434 27.1963 38.4261C27.0643 38.414 26.9385 38.365 26.8338 38.2847C26.7045 38.1797 26.5911 38.0568 26.4971 37.92C26.3954 37.7602 26.3037 37.5948 26.2106 37.4308C26.1932 37.3998 26.1673 37.3742 26.1359 37.3569C26.1045 37.3397 26.0688 37.3315 26.033 37.3333C25.9886 37.3406 25.9477 37.3617 25.9163 37.3935C25.8849 37.4252 25.8645 37.466 25.8582 37.51C25.8507 37.6758 25.8979 37.8395 25.9928 37.9765C26.0258 38.0288 26.063 38.0797 26.0974 38.1306C25.9771 38.1129 25.8587 38.0845 25.7436 38.0458C25.6462 38.0056 25.5461 37.9721 25.4441 37.9454C25.2636 37.9157 24.6676 37.7475 24.4413 36.6533C24.3908 36.2104 24.4442 35.762 24.5974 35.3428C26.8291 34.78 29.1221 34.4885 31.4255 34.4747H31.7278C31.7086 34.4962 31.6979 34.5238 31.6979 34.5525C31.6979 34.5811 31.7086 34.6088 31.7278 34.6302C31.8109 34.7363 32.1891 35.0021 32.2908 35.2424C32.5287 35.8234 32.3768 36.0736 32.3166 36.1684C32.3066 36.1684 32.3037 36.1684 32.3009 36.1684L32.2622 36.1457C32.0172 35.9945 31.4742 35.5562 31.4155 35.5265C31.2837 35.4559 31.2163 35.4954 31.1633 35.5675C31.1103 35.6396 31.1862 35.8135 31.3052 35.9068ZM32.0215 38.0274C32.0501 37.4393 32.9126 36.5006 32.8281 35.6976C32.7791 35.2479 32.5657 34.8312 32.2278 34.5256L32.1605 34.486C33.293 34.5194 34.4223 34.6233 35.5415 34.7971C35.7518 34.9868 35.9512 35.1879 36.139 35.3993C36.0903 35.3993 35.5659 35.289 35.4226 35.2834C35.0903 35.2933 34.563 35.347 34.6261 35.6283C34.6734 35.7471 34.9384 35.7103 35.0029 35.7018C35.2056 35.6574 35.4149 35.6502 35.6203 35.6806C35.8902 35.7189 36.1349 35.8581 36.3037 36.0694C37.6118 38.1292 34.8854 39.3704 33.6648 39.82C32.7192 40.0985 31.8854 39.5005 32.0229 38.0288L32.0215 38.0274ZM21.1232 30.9362L21.0917 30.9051V30.8613C21.1182 30.691 21.1888 30.5303 21.2966 30.3948C21.2265 30.3377 21.1686 30.2676 21.1261 30.1884C21.0421 30.0114 21.0295 29.8096 21.0907 29.6237C21.1518 29.4379 21.2823 29.282 21.4556 29.1875C21.5388 29.1484 21.6287 29.1254 21.7206 29.1196C21.7156 28.9409 21.7549 28.7638 21.8352 28.6036L21.8553 28.5654L21.8983 28.5541C22.0756 28.5254 22.2575 28.5435 22.4255 28.6064C22.4813 28.4761 22.5761 28.3657 22.6972 28.2899C22.8183 28.2141 22.9599 28.1766 23.1032 28.1823C23.2452 28.1773 23.3854 28.2149 23.5053 28.2901C23.6253 28.3653 23.7193 28.4746 23.7751 28.6036C23.9414 28.5463 24.1192 28.5289 24.2937 28.5527L24.3381 28.5598L24.3625 28.5965C24.4459 28.7571 24.4849 28.9366 24.4756 29.1168C24.5685 29.1226 24.6594 29.1456 24.7436 29.1846C24.9169 29.2791 25.0473 29.4351 25.1085 29.6209C25.1696 29.8067 25.157 30.0086 25.0731 30.1855C25.0311 30.2635 24.9742 30.3326 24.9054 30.3891C25.0078 30.5252 25.0765 30.683 25.106 30.85V30.8924L25.0788 30.9263C24.9571 31.0524 24.804 31.1445 24.6347 31.1935C24.6682 31.334 24.6591 31.4812 24.6086 31.6166C24.558 31.7521 24.4683 31.8699 24.3504 31.9555C24.2326 32.041 24.0919 32.0905 23.9458 32.0978C23.7997 32.1051 23.6546 32.0699 23.5287 31.9965C23.4284 32.1323 23.2987 32.2443 23.149 32.3245L23.1089 32.3443L23.0673 32.3273C22.9112 32.253 22.7781 32.1388 22.6819 31.9965C22.5583 32.0754 22.4127 32.1143 22.2655 32.1077C22.1184 32.1011 21.977 32.0494 21.861 31.9597C21.7386 31.8785 21.6451 31.7614 21.5937 31.625C21.5423 31.4885 21.5356 31.3396 21.5745 31.1992C21.4051 31.1479 21.2505 31.0578 21.1232 30.9362V30.9362ZM24.0143 37.1156C23.475 36.8488 23.0634 36.3838 22.8682 35.8206C23.2149 35.7131 23.6003 35.6001 24.0229 35.4855C23.9986 35.5873 23.9771 35.6962 23.9613 35.8121C23.8309 36.748 24.0072 37.076 24.0143 37.1156ZM26.3281 40.3671C26.3692 40.3924 26.4072 40.4222 26.4413 40.4562C26.6519 40.6654 26.6189 41.163 27.2421 41.7921C27.432 41.9602 27.6434 42.1028 27.8711 42.2162C28.7536 42.622 29.1605 42.4382 29.3252 42.4184C29.3138 42.4495 29.3066 42.4806 29.2937 42.5089C27.5086 45.6063 27.1447 48.1326 27.3797 50.0736C26.6685 49.536 26.0143 48.9288 25.4269 48.2613C24.1146 46.7754 23.0888 44.9574 22.3754 42.8581C21.6791 40.7656 21.3086 38.5811 21.2765 36.379C21.5315 36.2786 21.914 36.1373 22.4011 35.9747C22.4293 36.0707 22.4628 36.1651 22.5014 36.2574C22.6284 36.5332 22.8035 36.7849 23.0186 37.001C23.4831 37.4553 23.9955 37.8591 24.5473 38.2055C25.5587 38.7328 27.0903 39.1145 27.202 39.1428C27.3138 39.1711 28.0344 39.41 28.2049 39.4383C28.2763 39.444 28.3469 39.4573 28.4155 39.4779C28.6103 39.5485 29.8696 39.7465 29.9398 40.3416C29.9789 40.577 29.9522 40.8185 29.8625 41.04C29.8262 41.1457 29.7811 41.2484 29.7278 41.3468C29.6934 41.3143 29.6103 40.8379 28.7249 40.4067C27.8395 39.9755 27.149 40.2186 26.8224 40.1692C26.6593 40.1461 26.493 40.1722 26.3453 40.2441C26.2636 40.2794 26.2622 40.3176 26.3281 40.3671ZM40.4255 42.8538C39.7264 44.9546 38.7063 46.7754 37.4069 48.2627C37.3653 48.3107 37.3209 48.3574 37.2779 48.404C36.6542 48.2704 36.0179 48.2027 35.3797 48.2019C33.0874 48.1043 31.9413 47.2123 32.3453 45.8466C32.3582 45.8042 32.4198 45.6699 32.3352 45.5893C32.2507 45.5088 32.1418 45.5752 32.096 45.5992C30.1734 46.6242 29.5645 49.9817 29.5645 49.9817C29.5645 49.9817 29.4699 47.3621 31.3195 45.612C33.1691 43.8618 34.7264 44.2152 34.7951 44.2152C35.5458 44.3905 35.5903 44.0555 35.6246 43.9876C35.6851 43.8669 35.7262 43.7377 35.7464 43.6045C35.7476 43.5791 35.754 43.5541 35.7653 43.5313C35.7767 43.5084 35.7927 43.4881 35.8123 43.4716C35.8799 43.4165 35.9392 43.3522 35.9885 43.2808C36.0645 43.1549 36.543 42.2827 36.1533 41.942C36.0991 41.8841 36.0322 41.8392 35.9577 41.8107C35.8832 41.7823 35.8031 41.7711 35.7235 41.778C35.6662 41.7716 35.6108 41.7543 35.5602 41.7271C35.3818 41.6406 35.1963 41.5692 35.0057 41.5136C34.8345 41.4639 34.6685 41.398 34.51 41.3171C34.4107 41.2728 34.3305 41.1951 34.2837 41.098C34.1404 40.6993 33.7522 40.4844 33.6805 40.4335C34.2722 40.2738 34.8359 40.0264 35.3524 39.6998C36.5917 38.8869 36.8639 38.3257 36.8639 38.3257C36.9415 38.1652 37.0732 38.0363 37.2364 37.961C37.4179 37.878 37.5844 37.7663 37.7292 37.6301C37.7292 37.6301 37.9183 37.4704 37.8209 37.3007C37.7235 37.1311 37.4799 37.2527 37.4069 37.3007C37.3351 37.3535 37.2516 37.3884 37.1633 37.4025C37.1801 37.309 37.1801 37.2133 37.1633 37.1198C37.0845 36.0963 36.8037 35.7782 36.5903 35.388C36.4939 35.2195 36.3801 35.0612 36.2507 34.9158C38.0387 35.2332 39.7906 35.7233 41.4814 36.379C41.4643 38.5776 41.1083 40.7609 40.4255 42.8538V42.8538ZM41.5874 30.8528V30.8952L41.5602 30.9291C41.4366 31.055 41.2813 31.1463 41.1103 31.1935C41.1438 31.334 41.1348 31.4812 41.0842 31.6166C41.0337 31.7521 40.9439 31.8699 40.8261 31.9555C40.7083 32.041 40.5675 32.0905 40.4214 32.0978C40.2753 32.1051 40.1303 32.0699 40.0043 31.9965C39.904 32.1328 39.7737 32.245 39.6232 32.3245L39.5845 32.3443L39.543 32.3273C39.3869 32.253 39.2538 32.1388 39.1576 31.9965C39.032 32.0706 38.8871 32.1066 38.741 32.1C38.5948 32.0935 38.4538 32.0447 38.3355 31.9598C38.2172 31.8748 38.1268 31.7574 38.0756 31.6222C38.0243 31.487 38.0145 31.3399 38.0473 31.1992C37.8788 31.1492 37.725 31.06 37.5989 30.939L37.5673 30.9079V30.8641C37.5929 30.6938 37.663 30.533 37.7708 30.3976C37.7015 30.3398 37.6437 30.2698 37.6003 30.1912C37.5409 30.0845 37.5098 29.9648 37.5099 29.8431C37.5099 29.7215 37.5411 29.6018 37.6006 29.4952C37.66 29.3885 37.7458 29.2985 37.8499 29.2333C37.9541 29.1682 38.0732 29.13 38.1963 29.1224C38.1908 28.945 38.2291 28.7688 38.308 28.6092L38.3281 28.5711L38.3711 28.5598C38.5484 28.5311 38.7303 28.5491 38.8983 28.6121C38.958 28.4852 39.053 28.3777 39.1722 28.3021C39.2915 28.2265 39.43 28.1859 39.5718 28.185C39.7135 28.1841 39.8526 28.223 39.9728 28.2971C40.093 28.3712 40.1894 28.4775 40.2507 28.6036C40.4169 28.5456 40.5948 28.5281 40.7693 28.5527L40.8138 28.5598L40.8367 28.5965C40.9223 28.7564 40.962 28.9363 40.9513 29.1168C41.0441 29.1226 41.135 29.1456 41.2192 29.1846C41.3925 29.2791 41.5229 29.4351 41.5841 29.6209C41.6453 29.8067 41.6326 30.0086 41.5487 30.1855C41.5062 30.2631 41.4493 30.3322 41.3811 30.3891C41.4857 30.5256 41.5563 30.6844 41.5874 30.8528V30.8528Z" fill="white"/>
<path d="M41.1175 29.405C40.9624 29.3422 40.7884 29.3422 40.6332 29.405C40.4155 29.4743 40.2178 29.7076 40.0874 29.8984L40.1017 29.9182L40.3668 29.8334C40.406 29.8206 40.4487 29.8236 40.4857 29.8419C40.5217 29.8608 40.5489 29.8927 40.5616 29.9309C40.5681 29.9499 40.5706 29.9699 40.5692 29.9898C40.5677 30.0097 40.5622 30.0291 40.553 30.0469C40.5438 30.0648 40.5311 30.0808 40.5156 30.0939C40.5001 30.107 40.4822 30.117 40.4628 30.1232L40.2006 30.2066C40.2006 30.2222 40.2006 30.2391 40.2006 30.2547V30.2716C40.4226 30.3508 40.7235 30.4257 40.9427 30.3565C41.1059 30.3164 41.2468 30.2149 41.3353 30.0737C41.3877 29.9547 41.3943 29.8209 41.3536 29.6974C41.313 29.574 41.228 29.4695 41.1146 29.4036L41.1175 29.405Z" fill="white"/>
<path d="M39.5789 30.6731C39.8131 30.6731 40.0029 30.4857 40.0029 30.2546C40.0029 30.0235 39.8131 29.8362 39.5789 29.8362C39.3446 29.8362 39.1548 30.0235 39.1548 30.2546C39.1548 30.4857 39.3446 30.6731 39.5789 30.6731Z" fill="white"/>
<path d="M38.212 30.3566C38.4312 30.4272 38.732 30.3565 38.9555 30.2717V30.2548C38.9555 30.2392 38.9555 30.2222 38.9555 30.2067L38.6934 30.1233C38.6544 30.1103 38.6221 30.083 38.6031 30.0469C38.5939 30.0292 38.5884 30.0097 38.5869 29.9898C38.5855 29.9699 38.588 29.9499 38.5945 29.931C38.6008 29.9119 38.6109 29.8942 38.6242 29.8789C38.6375 29.8636 38.6537 29.851 38.6719 29.842C38.6899 29.8329 38.7096 29.8275 38.7297 29.826C38.7499 29.8246 38.7702 29.8271 38.7893 29.8335L39.0558 29.9183L39.0702 29.8985C38.9383 29.7077 38.7406 29.4744 38.5243 29.4051C38.4385 29.376 38.3486 29.3602 38.2578 29.3585C38.1821 29.3572 38.1071 29.3732 38.0386 29.4051C37.9248 29.4705 37.8392 29.5748 37.798 29.6983C37.7568 29.8218 37.7629 29.9559 37.8151 30.0752C37.9049 30.2167 38.0474 30.3178 38.212 30.3566Z" fill="white"/>
<path d="M40.7563 29.1125C40.7582 28.9872 40.7368 28.8627 40.6933 28.745C40.5666 28.7362 40.4395 28.7526 40.3193 28.793C40.3556 28.9547 40.3481 29.1229 40.2979 29.2808C40.4336 29.1869 40.5914 29.129 40.7563 29.1125V29.1125Z" fill="white"/>
<path d="M39.4242 29.6582V29.3755C39.4242 29.335 39.4405 29.2962 39.4695 29.2675C39.4985 29.2389 39.5379 29.2228 39.5789 29.2228C39.62 29.2228 39.6593 29.2389 39.6883 29.2675C39.7174 29.2962 39.7337 29.335 39.7337 29.3755V29.6582L39.7824 29.6738C39.9256 29.4914 40.0861 29.237 40.0861 29.0136C40.0861 28.6333 39.9056 28.4241 39.5789 28.4241C39.2523 28.4241 39.0718 28.639 39.0718 29.0136C39.0718 29.237 39.2337 29.4914 39.3755 29.6738L39.4242 29.6582Z" fill="white"/>
<path d="M38.8625 29.2793C38.8145 29.1229 38.8071 28.9571 38.8411 28.7972C38.7217 28.7552 38.5951 28.7369 38.4686 28.7435C38.4195 28.8588 38.3961 28.9832 38.3998 29.1082C38.5667 29.1238 38.7264 29.1828 38.8625 29.2793V29.2793Z" fill="white"/>
<path d="M21.9427 30.6251H21.9126C21.827 30.6226 21.7421 30.6083 21.6604 30.5827C21.5933 30.5608 21.5281 30.5334 21.4656 30.5007C21.3914 30.5981 21.3365 30.7084 21.3037 30.8259C21.3995 30.9083 21.5118 30.9699 21.6332 31.0068C21.7009 30.8552 21.8076 30.7236 21.9427 30.6251Z" fill="white"/>
</g>
<defs>
<clipPath id="clip0_321_1357">
<rect width="134" height="28.5867" fill="white" transform="translate(20 25)"/>
</clipPath>
</defs>
</svg>
